PathFileType	4	(X/Y/Z)	./resultDataOpenSim/trcMotMarkerGrf/sub06/qtm-02-01.trc
DataRate	CameraRate	NumFrames	NumMarkers	Units	OrigDataRate	OrigDataStartFrame	OrigNumFrames
250.000000	250.000000	8	24	m	250.000000	1	509
Frame#	Time	L.Toe.Tip			R.Toe.Tip			L.Ankle.Lat			R.Ankle.Lat			L.Ankle.Med			R.Ankle.Med			L.Heel			R.Heel			L.Knee.Lat			R.Knee.Lat			L.Knee.Med			R.Knee.Med			L.Thigh.Upper			R.Thigh.Upper			L.ASIS			R.ASIS			V.Sacral			L.Acromium			R.Acromium			C7			L.Elbow			R.Elbow			L.Wrist.Lat			R.Wrist.Lat
		X1	Y1	Z1	X2	Y2	Z2	X3	Y3	Z3	X4	Y4	Z4	X5	Y5	Z5	X6	Y6	Z6	X7	Y7	Z7	X8	Y8	Z8	X9	Y9	Z9	X10	Y10	Z10	X11	Y11	Z11	X12	Y12	Z12	X13	Y13	Z13	X14	Y14	Z14	X15	Y15	Z15	X16	Y16	Z16	X17	Y17	Z17	X18	Y18	Z18	X19	Y19	Z19	X20	Y20	Z20	X21	Y21	Z21	X22	Y22	Z22	X23	Y23	Z23	X24	Y24	Z24

1	0	-1.5476055	0.032009587	-0.09198442	-1.0978554	0.072303521	0.12156394	-1.6670248	0.07513504	-0.10499157	-1.2286155	0.076156436	0.11936811	-1.6591251	0.085903144	-0.018699097	-1.2022097	0.10157431	0.038019071	NaN	NaN	NaN	-1.2676823	0.043473989	0.045382958	-1.5169933	0.41608424	-0.11695243	-1.2282308	0.46832557	0.14090962	-1.5331713	0.41953841	0.0017055527	-1.2434182	0.4500868	0.013384253	-1.4353985	0.79638336	-0.18440221	-1.4177481	0.79445443	0.16701559	-1.354553	0.83796367	-0.1404979	-1.3361683	0.8487988	0.10130859	-1.5261694	0.92012104	-0.0019948099	-1.3747603	1.3282952	-0.19343258	-1.3816182	1.3105954	0.16659351	-1.4524419	1.3587656	-0.013385147	-1.3902863	1.0094866	-0.27325286	-1.5041644	1.0186934	0.22717651	-1.1930898	0.85645067	-0.24218466	-1.3754586	0.8092938	0.25373874
2	0.004	-1.5477219	0.031964707	-0.091950349	-1.0790704	0.074315368	0.1219026	-1.6679877	0.075729606	-0.10405878	-1.2098693	0.075350468	0.12054541	-1.6587763	0.086335378	-0.018786069	-1.1846288	0.10133342	0.038937282	NaN	NaN	NaN	-1.2485005	0.041790148	0.046547511	-1.5147491	0.41572988	-0.11703423	-1.2212102	0.46725579	0.14062617	-1.530913	0.41926322	0.0017173349	-1.2360399	0.44854353	0.01308705	-1.4299579	0.79492242	-0.18383993	-1.4115667	0.79305406	0.16725236	-1.3485405	0.83636676	-0.14029246	-1.3294704	0.84725408	0.10167411	-1.5196047	0.91844668	-0.001447334	-1.3686769	1.3266964	-0.19331361	-1.3759284	1.3087429	0.16690983	-1.4464351	1.3573241	-0.013369559	-1.3815582	1.0075295	-0.27325409	-1.4994967	1.0174978	0.22678019	-1.1824819	0.85740329	-0.24025054	-1.373672	0.80687111	0.2544266
3	0.008	-1.5478264	0.031921771	-0.091931193	-1.0604002	0.076417478	0.12227622	-1.6684766	0.076312444	-0.10352094	-1.191102	0.074757542	0.12178478	-1.6584561	0.086790846	-0.01887523	-1.1671619	0.10125541	0.039899188	NaN	NaN	NaN	-1.2294564	0.040317743	0.047738249	-1.5124409	0.41532981	-0.1171459	-1.2142583	0.4660898	0.14035252	-1.5285467	0.41892625	0.0016858649	-1.2287014	0.44694165	0.012768518	-1.4246018	0.79336148	-0.18334882	-1.4054007	0.79159489	0.16745041	-1.3426749	0.83472842	-0.14020283	-1.322811	0.84568605	0.10204544	-1.5130169	0.91679296	-0.00088355319	-1.3625692	1.3250666	-0.19316844	-1.3702488	1.306891	0.16724746	-1.4403957	1.3558698	-0.013311826	-1.3728332	1.0055779	-0.2732758	-1.4948634	1.0161833	0.22643256	-1.1719202	0.85834732	-0.23832022	-1.3718476	0.80443153	0.25510428
4	0.012	-1.5478755	0.031888699	-0.091976186	-1.0419204	0.078678465	0.12265212	-1.668444	0.076883509	-0.1034254	-1.1723829	0.074475881	0.1230987	-1.6581379	0.087304457	-0.018978067	-1.1498736	0.10142956	0.040909243	NaN	NaN	NaN	-1.2106434	0.039175067	0.048969721	-1.5100136	0.41487039	-0.11728669	-1.2073883	0.46478925	0.14007853	-1.5259919	0.41849948	0.0016075426	-1.2214213	0.44524122	0.012418172	-1.4193899	0.79174016	-0.18282313	-1.3992541	0.79004982	0.16758554	-1.3369716	0.83303857	-0.14026913	-1.3161678	0.84407133	0.10240732	-1.5063974	0.91516424	-0.00030272062	-1.3564173	1.3233825	-0.1929952	-1.3645725	1.3050379	0.16761253	-1.4342981	1.3543998	-0.013165741	-1.3640872	1.0036134	-0.2732862	-1.4902072	1.0146408	0.2261085	-1.1614131	0.85927665	-0.23638477	-1.3699549	0.80197395	0.25578026
5	0.016	-1.5478	0.031881621	-0.092163719	-1.0237187	0.081130352	0.12292753	-1.668137	0.077448848	-0.10357312	-1.1538543	0.074515434	0.12446785	-1.6577839	0.087882828	-0.019108075	-1.1328325	0.10187652	0.041943017	NaN	NaN	NaN	-1.1921447	0.038369625	0.050247886	-1.5074436	0.41436331	-0.11743868	-1.2005572	0.46337962	0.13979701	-1.5231855	0.41796733	0.0015030216	-1.2142119	0.44343741	0.012048106	-1.4143436	0.79018601	-0.18209935	-1.3931264	0.78841008	0.16765145	-1.3313438	0.83132497	-0.14046144	-1.3095097	0.84240283	0.10272836	-1.4997744	0.91354747	0.00028309841	-1.350223	1.3216405	-0.19281459	-1.3588766	1.3031757	0.16799625	-1.4281517	1.3529188	-0.012928601	-1.3553062	1.0016161	-0.27323439	-1.4854474	1.0128441	0.22574989	-1.1509712	0.86017669	-0.2344381	-1.3679861	0.79951635	0.25647101
6	0.02	-1.5475701	0.031910829	-0.092531595	-1.0058431	0.083818257	0.12298761	-1.6677658	0.078016758	-0.10378178	-1.1356087	0.074866475	0.12587055	-1.6574107	0.088486481	-0.019267164	-1.1160823	0.10258668	0.042974723	NaN	NaN	NaN	-1.1739951	0.037845064	0.051580004	-1.5047387	0.4138221	-0.11759456	-1.1936811	0.46190847	0.13953159	-1.5200424	0.41732321	0.0013726566	-1.2070683	0.44154768	0.011689138	-1.409408	0.78874931	-0.18122892	-1.38696	0.78666931	0.16768167	-1.3257084	0.82960156	-0.14072172	-1.3028075	0.84068906	0.10298758	-1.493178	0.9119274	0.00086552114	-1.3439931	1.3198568	-0.19264268	-1.3531323	1.3012998	0.16838882	-1.4219881	1.3514188	-0.012675277	-1.346488	0.99958817	-0.27309229	-1.4805563	1.0108811	0.22534063	-1.1406141	0.86103251	-0.23249182	-1.3659472	0.79707785	0.2571827
7	0.024	-1.5472924	0.031959955	-0.092971876	-0.98829895	0.086851029	0.12277408	-1.6674005	0.078602724	-0.10397603	-1.1177582	0.075481444	0.12724716	-1.6570471	0.089082727	-0.019448624	-1.0996627	0.10352839	0.043977802	NaN	NaN	NaN	-1.1561834	0.03752967	0.052962105	-1.5019138	0.41325513	-0.11776656	-1.1867215	0.46040224	0.13931582	-1.5165685	0.41658242	0.0012047255	-1.1999759	0.4395967	0.011363569	-1.4044819	0.78737101	-0.1804725	-1.3805932	0.78484068	0.16776368	-1.3200276	0.82785456	-0.14098057	-1.2960257	0.83894872	0.10318762	-1.4866121	0.91031034	0.0014473644	-1.3377315	1.3180557	-0.19247174	-1.3473363	1.2994247	0.16878861	-1.4158358	1.3498849	-0.012493942	-1.3376457	0.99755394	-0.272866	-1.4755588	1.0089051	0.22493981	-1.130362	0.86184906	-0.23056377	-1.3638288	0.79467095	0.25790922
8	0.028	-1.5471812	0.031992473	-0.093260461	-0.97112283	0.090342575	0.12232289	-1.6670305	0.079233508	-0.10415744	-1.1004825	0.076265131	0.12849909	-1.6566588	0.089695576	-0.019652013	-1.0836688	0.10464497	0.044921924	NaN	NaN	NaN	-1.1387035	0.037354787	0.054362031	-1.4989701	0.41266978	-0.11797518	-1.1797485	0.45885552	0.13915334	-1.5128926	0.41576377	0.00099666776	-1.1929188	0.43760975	0.011060383	-1.3994927	0.7859837	-0.17999025	-1.3738814	0.78295305	0.16797516	-1.3142678	0.82608954	-0.14117916	-1.2891396	0.83719489	0.10333996	-1.480059	0.90871771	0.0020360992	-1.3314378	1.3162507	-0.19228468	-1.3415005	1.2975672	0.16920005	-1.4096945	1.3483157	-0.012386208	-1.3288025	0.99554224	-0.27259325	-1.4704938	1.0070527	0.22468051	-1.1202158	0.86264581	-0.22865292	-1.3615952	0.79230286	0.25864262
